<svg width="49" height="48" viewBox="0 0 49 48" fill="none" xmlns="http://www.w3.org/2000/svg">
<g clip-path="url(#clip0_5316_25074)">
<path d="M17.9551 31.091L22.8642 23.1819L29.6824 30.5455C30.3187 32.9092 30.7149 37.3581 28.3187 38.7273C26.4096 39.8182 23.1369 39.8182 21.5005 38.7273L19.3187 37.3637L17.9551 31.091Z" fill="#D9DAFF"/>
<path d="M35.5516 24.2346C35.4425 23.9619 35.328 23.6891 35.1971 23.4273C34.848 22.7019 33.7898 22.8546 33.6261 23.64C33.4843 24.3273 33.1352 24.8891 32.5025 25.0473C30.3807 25.5819 29.5734 23.1164 29.5734 23.1164C29.0061 22.0146 29.0171 20.3455 29.5952 18.6655C30.1734 16.9855 30.3861 15.1364 29.9225 13.4182C29.4152 11.5364 28.068 10.0419 26.208 8.80368C26.0934 8.72731 25.728 8.51459 25.3407 8.2964C24.828 8.00731 24.2007 8.32368 24.1025 8.90731C23.8352 10.5491 22.9571 12.06 21.8443 13.3582C20.4534 14.9728 19.4225 16.08 18.3534 17.9237C17.3607 19.6309 16.8316 21.9328 16.9352 24.0164C16.9734 24.7364 16.0898 25.1673 15.5661 24.6709L15.5552 24.66C15.3043 24.4146 15.1243 24.1637 14.9989 23.9019C14.7152 23.3182 13.8752 23.3019 13.548 23.8582C13.0571 24.6982 12.6698 25.6582 12.5716 26.3346C12.3971 27.5346 12.4952 29.2473 12.8225 30.4146C13.5589 33.0273 14.2843 34.26 16.188 36.1746C16.2098 36.1964 16.2261 36.2128 16.248 36.2291C16.5425 36.4746 18.9916 38.4546 22.4171 39.18C17.8789 36.6055 20.7098 29.4546 22.728 25.5328C23.0771 24.8509 24.1025 25.1019 24.1134 25.8655C24.168 30.7364 25.6952 32.1546 27.0534 31.9528C27.408 31.8982 27.7189 31.7019 27.9752 31.4509C28.4061 31.0309 29.1261 31.2873 29.2134 31.8819C29.7916 35.8473 28.6952 38.1164 27.2825 39.1909C29.9061 38.6073 32.7261 36.9655 35.4261 33.4473C35.4589 33.4037 35.4861 33.36 35.5134 33.3109C37.1389 30.3055 36.6861 27.0982 35.5407 24.24L35.5516 24.2346Z" fill="#808BFF"/>
</g>
<defs>
<clipPath id="clip0_5316_25074">
<rect width="24" height="31.6364" fill="white" transform="translate(12.5 8.18188)"/>
</clipPath>
</defs>
</svg>
