<svg width="49" height="48" viewBox="0 0 49 48" fill="none" xmlns="http://www.w3.org/2000/svg">
<g id="index icon">
<path id="Vector 28" d="M17.4082 18.8182L25.3173 14.1819L32.9537 18.8182L25.3173 26.1819L17.4082 18.8182Z" fill="#ECEDFF"/>
<path id="Vector" d="M37.476 11.1982C35.9651 10.7127 30.4724 9.28911 24.456 11.82C20.2615 13.5818 16.4324 12.4964 14.136 11.4218V10.3637C14.136 9.4582 13.4051 8.72729 12.4996 8.72729C11.5942 8.72729 10.8633 9.45275 10.8633 10.3582V37.9364C10.8633 38.8418 11.5942 39.5727 12.4996 39.5727C13.4051 39.5727 14.136 38.8418 14.136 37.9364V26.8146C16.6233 27.9818 20.8178 29.3127 24.7887 27.54C30.4669 25.0146 35.2669 26.1546 37.0942 26.7709C37.4815 26.9018 37.8851 26.6182 37.8851 26.2091V11.76C37.8851 11.5037 37.7215 11.2746 37.476 11.1982ZM29.3542 19.4018C29.3542 19.62 29.1851 19.8 28.9724 19.8164L25.8524 20.3455L25.3015 23.46C25.2851 23.6727 25.1051 23.8364 24.8869 23.8364H24.8706C24.6524 23.8364 24.4724 23.6673 24.456 23.4546L23.9269 20.3346L20.8124 19.7727C20.5996 19.7564 20.436 19.5764 20.436 19.3582C20.436 19.14 20.6051 18.96 20.8178 18.9437L23.9433 18.4146L24.5051 15.3C24.5215 15.0873 24.7015 14.9237 24.9196 14.9237C25.1378 14.9237 25.3178 15.0927 25.3342 15.3055L25.8633 18.4255L28.9778 18.9764C29.1906 18.9927 29.3542 19.1727 29.3542 19.3909V19.4073V19.4018Z" fill="#808BFF"/>
</g>
</svg>
