<svg width="208" height="168" viewBox="0 0 208 168" fill="none" xmlns="http://www.w3.org/2000/svg">
<g clip-path="url(#clip0_5314_20452)">
<path d="M189.04 155.513C189.04 155.513 203.048 157.482 200.51 161.232C197.971 164.983 181.988 161.232 181.988 161.232" fill="#F9F3E5"/>
<path d="M194.582 164.032C193.284 164.032 191.81 163.943 190.175 163.766C185.842 163.295 181.896 162.375 181.729 162.336C181.117 162.192 180.738 161.582 180.882 160.973C181.026 160.365 181.638 159.987 182.248 160.129C189.569 161.844 198.27 162.513 199.566 160.597C199.716 160.376 199.682 160.301 199.655 160.24C199.562 160.03 198.858 158.927 194.129 157.697C191.465 157.004 188.906 156.639 188.881 156.635C188.26 156.548 187.826 155.974 187.915 155.354C188.004 154.734 188.578 154.304 189.199 154.391C189.307 154.406 191.897 154.774 194.686 155.498C198.81 156.569 201.05 157.784 201.734 159.32C202.103 160.149 202.003 161.053 201.451 161.867C200.661 163.033 199.093 163.713 196.652 163.943C196.023 164.004 195.332 164.032 194.582 164.032Z" fill="#0F0F0F"/>
<path d="M132.285 154.2C132.285 154.2 118.277 156.168 120.815 159.919C123.354 163.67 139.337 159.919 139.337 159.919" fill="#F9F3E5"/>
<path d="M126.742 162.719C125.992 162.719 125.3 162.689 124.671 162.63C122.231 162.4 120.661 161.72 119.872 160.554C119.321 159.74 119.221 158.835 119.59 158.007C120.276 156.471 122.515 155.256 126.638 154.185C129.427 153.461 132.015 153.093 132.125 153.077C132.748 152.989 133.322 153.421 133.409 154.041C133.496 154.661 133.064 155.235 132.443 155.322C132.418 155.326 129.859 155.691 127.195 156.384C122.466 157.614 121.761 158.719 121.668 158.927C121.642 158.988 121.608 159.063 121.758 159.284C123.053 161.198 131.755 160.531 139.076 158.816C139.688 158.672 140.3 159.05 140.442 159.66C140.586 160.271 140.207 160.881 139.595 161.022C139.428 161.062 135.482 161.982 131.149 162.453C129.514 162.63 128.04 162.719 126.742 162.719Z" fill="#0F0F0F"/>
<path d="M151.373 88.2853C151.373 88.2853 153.667 78.2903 168.354 80.5179C168.354 80.5179 180.219 82.3148 180.678 91.1913C180.678 91.1913 189.184 87.3085 197.776 96.6385C205.008 104.491 200.336 120.519 200.336 120.519C200.336 120.519 208.913 123.106 206.414 136.26C203.532 151.432 192.758 149.163 192.758 149.163C192.758 149.163 189.003 161.979 175.146 163.386C164.032 164.514 158.39 159.358 158.39 159.358C158.39 159.358 152.299 163.193 140.811 160.737C129.322 158.281 128.134 142.002 128.134 142.002C128.134 142.002 119.84 139.411 120.355 127.083C120.954 112.761 129.332 112.362 129.332 112.362C129.332 112.362 125.823 101.511 133.473 93.0221C141.123 84.5329 151.375 88.2835 151.375 88.2835L151.373 88.2853Z" fill="#F9F3E5"/>
<path d="M171.996 164.682C164.457 164.682 159.872 161.892 158.264 160.707C157.489 161.079 156.108 161.644 154.155 162.075C151.345 162.695 146.707 163.156 140.573 161.844C135.486 160.756 131.52 156.96 129.107 150.863C127.741 147.415 127.237 144.18 127.072 142.791C126.204 142.393 124.685 141.533 123.213 139.929C121.235 137.775 118.937 133.788 119.219 127.034C119.48 120.772 121.197 116.217 124.319 113.496C125.657 112.33 126.987 111.763 127.932 111.487C127.669 110.284 127.345 108.277 127.396 105.851C127.506 100.638 129.313 95.9393 132.627 92.2644C136.943 87.4747 141.916 86.3562 145.328 86.2598C147.628 86.1956 149.528 86.5715 150.661 86.8739C151.101 85.8233 151.972 84.2173 153.584 82.7322C155.966 80.5367 160.49 78.1768 168.525 79.3955C168.654 79.4144 171.712 79.8905 174.866 81.5173C178.674 83.4805 180.991 86.2844 181.641 89.6853C182.675 89.4227 184.212 89.1695 186.076 89.2829C189.206 89.4737 193.92 90.7717 198.614 95.8694C205.219 103.044 202.597 116.164 201.685 119.861C202.595 120.322 203.968 121.203 205.202 122.746C208.498 126.869 208.288 132.485 207.532 136.467C206.452 142.155 204.171 146.19 200.753 148.46C197.894 150.358 195.007 150.487 193.529 150.391C193.046 151.638 191.98 153.994 190.041 156.444C187.469 159.7 182.816 163.743 175.262 164.51C174.118 164.626 173.028 164.678 171.996 164.678V164.682ZM158.393 158.226C158.671 158.226 158.946 158.326 159.16 158.523C159.211 158.568 164.618 163.316 175.031 162.258C180.428 161.71 184.86 159.305 188.202 155.112C190.729 151.94 191.657 148.873 191.667 148.843C191.836 148.276 192.412 147.932 192.993 148.053C193.022 148.059 196.335 148.694 199.529 146.553C202.4 144.628 204.342 141.093 205.298 136.05C207.562 124.131 200.312 121.702 200.001 121.603C199.412 121.418 199.073 120.795 199.245 120.203C199.291 120.05 203.65 104.693 196.94 97.4074C188.999 88.7841 181.23 92.1888 181.152 92.2247C180.809 92.3815 180.411 92.3589 180.089 92.1642C179.767 91.9696 179.563 91.6276 179.544 91.2535C179.377 88.0188 177.469 85.4322 173.871 83.5617C171.047 82.0936 168.21 81.6458 168.182 81.642C154.786 79.6109 152.567 88.1813 152.48 88.5479C152.404 88.8672 152.19 89.1412 151.898 89.2923C151.606 89.4435 151.264 89.4643 150.959 89.3452C150.936 89.3358 148.545 88.4251 145.301 88.5347C141.022 88.6783 137.325 90.4449 134.315 93.7854C127.212 101.668 130.378 111.918 130.41 112.02C130.518 112.357 130.463 112.723 130.26 113.012C130.058 113.301 129.734 113.483 129.381 113.498C129.092 113.517 122.03 114.127 121.487 127.132C121.013 138.461 128.394 140.898 128.47 140.921C128.915 141.061 129.23 141.456 129.264 141.92C129.275 142.073 130.533 157.381 141.046 159.63C146.711 160.841 150.962 160.44 153.531 159.891C156.309 159.297 157.771 158.407 157.785 158.398C157.97 158.283 158.179 158.228 158.387 158.228L158.393 158.226Z" fill="#0F0F0F"/>
<path d="M144.402 103.626C144.402 103.626 149.518 109.719 157.196 103.066C157.196 103.066 158.485 106.868 163.437 107.435C168.391 108.002 170.337 105.169 170.337 105.169C170.337 105.169 172.487 112.317 183.375 109.26" fill="#F9F3E5"/>
<path d="M178.398 111.145C176.214 111.145 173.978 110.666 172.095 109.271C171.118 108.548 170.449 107.729 170.007 107.042C168.785 107.941 166.627 108.941 163.308 108.561C159.671 108.143 157.753 106.184 156.838 104.81C154.372 106.645 151.892 107.476 149.449 107.282C145.785 106.991 143.62 104.461 143.531 104.353C143.127 103.873 143.192 103.159 143.673 102.756C144.152 102.356 144.867 102.418 145.272 102.894C145.306 102.934 146.971 104.825 149.664 105.024C151.829 105.184 154.112 104.238 156.452 102.21C156.738 101.963 157.128 101.874 157.496 101.972C157.861 102.071 158.153 102.346 158.274 102.704C158.318 102.823 159.438 105.836 163.568 106.309C167.715 106.785 169.34 104.612 169.407 104.517C169.655 104.157 170.083 103.975 170.515 104.043C170.947 104.111 171.299 104.425 171.424 104.842C171.5 105.082 173.459 110.864 183.065 108.168C183.669 107.998 184.296 108.349 184.467 108.952C184.637 109.555 184.285 110.18 183.68 110.35C182.129 110.785 180.282 111.142 178.396 111.144L178.398 111.145Z" fill="#0F0F0F"/>
<path d="M158.341 113.538C158.392 114.106 158.796 114.577 159.281 114.941C160.382 115.771 161.841 116.035 163.165 115.646C163.746 115.474 164.29 115.178 164.54 114.662C165.207 113.29 162.776 112.478 161.77 112.294C160.764 112.111 158.203 112.018 158.341 113.536V113.538Z" fill="#A58065"/>
<path d="M161.93 116.957C160.74 116.957 159.562 116.576 158.596 115.846C157.751 115.21 157.285 114.469 157.209 113.641C157.146 112.95 157.385 112.319 157.882 111.865C159.151 110.707 161.688 111.129 161.972 111.18C162.256 111.231 164.78 111.729 165.558 113.258C165.863 113.857 165.863 114.531 165.56 115.155C165.196 115.903 164.499 116.432 163.484 116.733C162.974 116.882 162.449 116.956 161.928 116.956L161.93 116.957ZM159.484 113.494C159.532 113.645 159.706 113.842 159.966 114.038C160.784 114.654 161.858 114.851 162.842 114.56C163.154 114.467 163.385 114.344 163.484 114.22C163.243 113.957 162.389 113.56 161.566 113.411C160.744 113.262 159.803 113.332 159.486 113.494H159.484ZM159.471 113.42L158.34 113.538L159.469 113.436C159.469 113.436 159.469 113.426 159.471 113.42Z" fill="#0F0F0F"/>
<path d="M162.397 120.15C161.709 119.338 160.429 119.676 160.118 120.734C159.788 121.856 159.65 123.292 160.612 124.209C162.096 125.622 164.218 122.301 162.397 120.15Z" fill="#A58065"/>
<path d="M161.384 125.686C160.831 125.686 160.285 125.467 159.825 125.029C159.057 124.298 158.296 122.903 159.025 120.417C159.294 119.5 160.027 118.811 160.937 118.618C161.812 118.433 162.682 118.733 163.263 119.419C164.775 121.205 164.372 123.735 163.045 124.978C162.541 125.45 161.96 125.686 161.384 125.686ZM161.439 120.833C161.429 120.833 161.418 120.833 161.407 120.836C161.373 120.844 161.257 120.88 161.206 121.052C160.98 121.821 160.831 122.85 161.395 123.389C161.397 123.391 161.399 123.393 161.401 123.395C161.513 123.323 161.74 123.089 161.873 122.65C161.964 122.35 162.113 121.575 161.526 120.88C161.496 120.844 161.473 120.829 161.439 120.829V120.833Z" fill="#0F0F0F"/>
<path d="M168.262 152.231C168.262 152.231 167.656 159.449 168.827 164.794C169.392 167.373 172.87 168.076 174.749 163.762C176.629 159.449 175.971 152.324 175.971 152.324" fill="#F9F3E5"/>
<path d="M171.227 168C171.11 168 170.99 167.994 170.871 167.983C169.314 167.83 168.076 166.676 167.718 165.037C166.527 159.588 167.106 152.439 167.133 152.138C167.186 151.515 167.733 151.05 168.361 151.103C168.986 151.156 169.452 151.704 169.399 152.327C169.393 152.397 168.823 159.443 169.941 164.556C170.086 165.223 170.528 165.672 171.094 165.727C171.818 165.797 172.887 165.202 173.711 163.312C175.45 159.322 174.849 152.497 174.844 152.429C174.787 151.806 175.247 151.254 175.872 151.197C176.498 151.141 177.051 151.598 177.108 152.222C177.136 152.524 177.771 159.689 175.797 164.216C174.753 166.611 173.065 168 171.231 168H171.227Z" fill="#0F0F0F"/>
<path d="M149.508 151.294C149.508 151.294 150.114 158.512 148.943 163.857C148.379 166.436 144.9 167.139 143.021 162.825C141.141 158.512 141.799 151.387 141.799 151.387" fill="#F9F3E5"/>
<path d="M146.543 167.061C144.709 167.061 143.023 165.674 141.977 163.277C140.003 158.75 140.638 151.585 140.666 151.283C140.723 150.659 141.276 150.198 141.901 150.258C142.527 150.315 142.987 150.869 142.928 151.49C142.923 151.558 142.32 158.381 144.061 162.373C144.884 164.261 145.952 164.856 146.678 164.788C147.244 164.733 147.686 164.284 147.831 163.617C148.949 158.504 148.379 151.46 148.373 151.388C148.32 150.765 148.786 150.217 149.412 150.164C150.037 150.111 150.586 150.576 150.639 151.199C150.664 151.502 151.245 158.649 150.054 164.099C149.696 165.735 148.459 166.891 146.899 167.044C146.78 167.055 146.661 167.061 146.543 167.061Z" fill="#0F0F0F"/>
<path d="M165.958 81.4097C165.888 81.4097 165.816 81.404 165.746 81.3889C165.128 81.2717 164.724 80.6785 164.84 80.0644L166.303 72.3726C166.42 71.7566 167.015 71.3523 167.631 71.4694C168.248 71.5866 168.652 72.1798 168.536 72.7939L167.074 80.4857C166.97 81.0299 166.494 81.4078 165.958 81.4078V81.4097Z" fill="#0F0F0F"/>
<path d="M167.386 72.8827C167.386 72.8827 168.117 66.1204 165.457 64.3293C162.797 62.5381 159.74 64.6599 161.269 68.9697C162.797 73.2795 167.386 72.8808 167.386 72.8808V72.8827Z" fill="#4BC657"/>
<path d="M166.993 74.0315C164.978 74.0315 161.524 73.0868 160.198 69.3476C158.853 65.5574 160.683 63.7719 161.276 63.3128C162.608 62.285 164.5 62.3133 166.095 63.3884C169.233 65.4989 168.6 72.2403 168.519 73.0037C168.46 73.5422 168.028 73.9654 167.486 74.0107C167.334 74.024 167.17 74.0315 166.993 74.0315ZM163.53 64.8281C163.208 64.8281 162.911 64.9207 162.668 65.1078C162.075 65.565 161.679 66.7213 162.342 68.5919C163.176 70.9385 165.139 71.5583 166.33 71.7113C166.414 69.5063 166.162 66.1677 164.824 65.2684C164.388 64.9755 163.939 64.8262 163.532 64.8262L163.53 64.8281Z" fill="#0F0F0F"/>
<path d="M167.293 72.9827C167.293 72.9827 168.087 66.2261 171.08 65.0717C174.072 63.9154 176.58 66.6626 174.129 70.5246C171.677 74.3885 167.293 72.9827 167.293 72.9827Z" fill="#4BC657"/>
<path d="M169.097 74.3734C168.248 74.3734 167.494 74.2392 166.945 74.0635C166.428 73.8972 166.1 73.3909 166.164 72.8524C166.253 72.091 167.14 65.3778 170.67 64.0156C172.464 63.3221 174.315 63.7133 175.385 65.0113C175.861 65.5894 177.246 67.7358 175.09 71.133C173.481 73.6686 171.041 74.3753 169.097 74.3753V74.3734ZM168.586 72.0758C169.781 72.1892 171.833 72.0229 173.169 69.9181C174.233 68.2403 174.104 67.0254 173.629 66.4491C173.187 65.9125 172.367 65.7897 171.492 66.1279C169.988 66.7099 168.997 69.9087 168.587 72.0758H168.586Z" fill="#0F0F0F"/>
<path d="M199.114 114.662C197.949 114.662 196.831 114.367 195.772 113.776C191.019 111.127 189.247 103.331 189.175 103C189.041 102.388 189.427 101.783 190.041 101.649C190.655 101.515 191.261 101.9 191.396 102.511C191.411 102.583 193.023 109.649 196.886 111.797C198.131 112.491 199.463 112.576 200.954 112.06C201.547 111.854 202.195 112.168 202.401 112.759C202.608 113.35 202.293 113.997 201.7 114.203C200.817 114.509 199.953 114.662 199.114 114.662Z" fill="#0F0F0F"/>
<path d="M131.218 107.714C130.378 107.714 129.516 107.561 128.632 107.255C128.039 107.049 127.724 106.403 127.931 105.812C128.137 105.22 128.785 104.907 129.378 105.113C130.869 105.63 132.201 105.543 133.446 104.85C135.005 103.983 136.441 102.131 137.602 99.4953C138.519 97.4132 138.932 95.5805 138.936 95.5616C139.073 94.9513 139.679 94.5658 140.291 94.7C140.903 94.836 141.291 95.4388 141.155 96.0509C141.081 96.3816 139.311 104.177 134.558 106.826C133.499 107.416 132.381 107.712 131.216 107.712L131.218 107.714Z" fill="#0F0F0F"/>
<path d="M33.9138 132.046C33.9138 132.046 25.3542 132.331 23.7855 135.746C22.2168 139.16 18.8918 155.817 25.034 158.543C41.6171 165.905 68.9348 161.78 74.8534 160.357C74.8534 160.357 81.4161 127.139 33.9138 132.048V132.046Z" fill="#99BBFF"/>
<path d="M50.4387 163.913C41.5684 163.913 32.0122 162.882 24.5723 159.579C23.1135 158.931 22.0127 157.652 21.3023 155.777C18.9398 149.537 21.4538 138.098 22.7516 135.273C24.5382 131.387 32.7113 130.956 33.8348 130.914C51.0298 129.144 63.2668 132.093 70.2104 139.681C78.249 148.465 76.0645 160.085 75.9679 160.575C75.8827 161.009 75.5511 161.353 75.1192 161.457C71.7885 162.258 61.6621 163.911 50.4368 163.911L50.4387 163.913ZM33.9523 133.18C33.9314 133.18 31.8588 133.255 29.6459 133.731C27.0106 134.296 25.296 135.181 24.8186 136.218C23.6951 138.661 21.3572 149.504 23.428 154.976C23.9149 156.263 24.6102 157.115 25.4949 157.508C41.1554 164.461 66.7566 160.943 73.8422 159.424C74.1548 156.862 74.7061 147.942 68.5147 141.193C62.0751 134.174 50.4728 131.477 34.0299 133.176C34.0034 133.178 33.9769 133.18 33.9504 133.182L33.9523 133.18Z" fill="#0F0F0F"/>
<path d="M50.5133 144.38C46.9174 144.38 42.8536 143.855 38.354 142.808C32.7518 141.503 28.633 139.872 28.4606 139.802C27.8771 139.57 27.5948 138.91 27.8278 138.329C28.0608 137.747 28.722 137.465 29.3056 137.697C29.4685 137.762 45.6878 144.144 56.6952 141.437C57.3034 141.287 57.921 141.658 58.0707 142.266C58.2203 142.874 57.849 143.489 57.239 143.638C55.2269 144.133 52.98 144.38 50.5114 144.38H50.5133Z" fill="#729FE8"/>
<path d="M83.5688 129.605C100.94 132.656 102.118 144.928 99.9567 153.414C97.6624 162.419 93.4016 162.57 87.1741 161.959C78.0348 161.064 76.0303 156.161 77.9969 150.971C79.253 147.655 76.6574 145.682 75.5643 144.8C74.9997 144.343 74.2665 144.106 73.5182 144.104C70.8336 144.097 68.4559 143.936 66.3548 143.676C55.2413 142.296 47.1288 133.114 48.0155 122.705" fill="#2B2B2B"/>
<path d="M77.7047 151.853C76.2857 156.705 78.5554 161.115 87.1756 161.96C93.403 162.57 97.6639 162.417 99.9582 153.414C100.042 153.083 100.121 152.747 100.195 152.405C92.289 153.537 81.8026 152.392 77.7047 151.853Z" fill="white"/>
<path d="M90.5903 163.303C89.4479 163.303 88.2638 163.207 87.0645 163.088C82.2088 162.611 78.9141 161.03 77.2697 158.389C75.9283 156.237 75.8146 153.533 76.9362 150.57C77.7963 148.301 76.3584 146.895 74.9431 145.756L74.8522 145.682C74.5017 145.399 74.0262 145.242 73.5184 145.24C70.9456 145.233 68.4884 145.085 66.2187 144.804C54.444 143.341 45.9526 133.594 46.8866 122.612C46.9396 121.989 47.491 121.526 48.1162 121.579C48.7414 121.632 49.2055 122.18 49.1525 122.805C48.3208 132.568 55.9407 141.242 66.4991 142.553C68.6797 142.824 71.0441 142.965 73.526 142.973C74.551 142.977 75.5304 143.313 76.2845 143.921L76.3716 143.993C77.5216 144.919 80.5776 147.379 79.0638 151.373C78.4613 152.962 77.9972 155.26 79.2021 157.194C80.4374 159.176 83.2337 160.435 87.2881 160.833C93.2749 161.421 96.7647 161.353 98.8563 153.136C99.6861 149.882 100.578 143.655 97.2402 138.504C94.6466 134.502 89.9822 131.886 83.3739 130.724C82.7563 130.614 82.3433 130.026 82.4513 129.41C82.5612 128.795 83.1485 128.383 83.768 128.49C91.0242 129.766 96.1982 132.721 99.148 137.272C102.954 143.147 101.979 150.083 101.06 153.693C99.9002 158.243 98.1534 160.979 95.5597 162.302C94.0611 163.067 92.375 163.303 90.5903 163.303Z" fill="#0F0F0F"/>
<path d="M76.7194 101.247C76.7194 101.247 83.358 110.05 81.0239 131.495L38.0742 130.854L36.0508 92.9238" fill="#2B2B2B"/>
<path d="M81.0237 132.628C81.0237 132.628 81.0123 132.628 81.0066 132.628L38.057 131.988C37.4602 131.978 36.9714 131.51 36.9392 130.914L34.9158 92.9842C34.8817 92.3588 35.3629 91.826 35.99 91.792C36.6152 91.758 37.1513 92.2379 37.1855 92.8633L39.152 129.737L79.9987 130.346C81.9312 110.441 75.8686 102.008 75.8061 101.925C75.4328 101.422 75.537 100.714 76.0391 100.34C76.5412 99.9656 77.2497 100.066 77.6267 100.565C77.909 100.939 84.5097 109.974 82.1528 131.617C82.0903 132.194 81.6015 132.628 81.0237 132.628Z" fill="#0F0F0F"/>
<path d="M36.0533 99.4329C36.0533 99.4329 31.3548 110.269 30.2768 123.013C29.3788 133.618 35.9037 142.859 49.6866 144.182C51.8199 144.386 54.2203 144.609 56.939 144.618C56.939 144.618 62.7799 145.112 61.4727 151.613C60.3624 157.145 61.5106 161.897 70.7636 162.81C77.0687 163.431 81.3807 163.276 83.7034 154.101C85.8916 145.455 84.6981 132.953 67.1128 129.841" fill="#2B2B2B"/>
<path d="M61.4012 151.97C60.4122 157.348 61.7081 161.916 70.7603 162.81C77.0654 163.431 81.3774 163.277 83.7001 154.101C83.8536 153.493 83.99 152.864 84.1075 152.222C76.6221 153.557 66.2323 152.565 61.4012 151.97Z" fill="white"/>
<path d="M50.4219 98.269C50.4219 105.419 53.9154 112.041 59.62 115.775C59.906 115.962 60.2698 115.962 60.554 115.775C66.2585 112.041 69.7521 105.42 69.7521 98.269C63.7709 94.5978 56.403 94.5978 50.4219 98.269Z" fill="white"/>
<path d="M60.087 116.576C59.7971 116.576 59.5091 116.492 59.2552 116.328C56.3604 114.433 53.9524 111.765 52.2927 108.612C50.6331 105.458 49.7578 101.882 49.7578 98.2709C49.7578 98.0404 49.8772 97.8287 50.0742 97.7078C56.2505 93.9158 63.9234 93.9158 70.0997 97.7078C70.2948 97.8287 70.4161 98.0422 70.4161 98.2709C70.4161 101.883 69.5389 105.458 67.8812 108.612C66.2215 111.765 63.8154 114.433 60.9206 116.328C60.6686 116.492 60.3787 116.576 60.0889 116.576H60.087ZM51.0878 98.6412C51.209 105.368 54.5927 111.695 59.9827 115.221C60.0472 115.262 60.1248 115.262 60.1893 115.221C65.5793 111.693 68.963 105.368 69.0842 98.6412C63.5009 95.3687 56.6711 95.3687 51.0878 98.6412Z" fill="white"/>
<path d="M74.2178 164.151C73.0924 164.151 71.9008 164.06 70.6485 163.938C66.1906 163.497 63.2047 162.18 61.5205 159.913C59.9972 157.861 59.6164 155.072 60.3553 151.392C60.7001 149.671 60.5126 148.31 59.7983 147.35C58.834 146.056 57.1402 145.788 56.8712 145.754C54.0464 145.743 51.5683 145.504 49.5753 145.312C42.7548 144.656 37.2341 142.064 33.6098 137.814C30.2507 133.875 28.6631 128.585 29.1424 122.92C30.2242 110.138 34.8147 99.4346 35.0099 98.9849C35.26 98.4106 35.9287 98.146 36.5047 98.3954C37.0806 98.643 37.3459 99.3118 37.0977 99.8862C37.0522 99.9939 32.4579 110.713 31.4102 123.111C30.9764 128.245 32.3367 132.821 35.3433 136.346C38.5773 140.138 43.5752 142.459 49.795 143.056C51.7559 143.245 54.1961 143.479 56.9413 143.487C56.9716 143.487 57.0019 143.487 57.0341 143.49C57.1516 143.5 59.9385 143.759 61.6057 145.973C62.7368 147.473 63.0664 149.448 62.5871 151.838C61.9733 154.899 62.2158 157.036 63.3506 158.566C64.6124 160.266 67.1454 161.315 70.8758 161.684C76.9422 162.283 80.4793 162.213 82.6031 153.825C83.4462 150.494 84.3518 144.121 80.9397 138.857C78.3063 134.797 73.5888 132.141 66.9162 130.96C66.2985 130.85 65.8855 130.262 65.9954 129.645C66.1053 129.029 66.6945 128.617 67.314 128.726C74.6327 130.021 79.8598 133.015 82.8494 137.626C86.7295 143.609 85.7424 150.691 84.8084 154.379C82.7661 162.447 79.119 164.151 74.2235 164.151H74.2178Z" fill="#0F0F0F"/>
<path d="M70.3896 103.015C96.2333 98.7941 110.101 83.297 105.249 60.3141C105.426 59.7 120.743 6.07815 107.773 3.36871C95.142 0.731076 74.9555 23.4949 72.5645 25.6696C62.4059 22.5388 51.4724 22.3102 41.1925 25.0158C38.8925 22.741 19.6779 -0.844704 6.94643 1.26578C-6.12793 3.43106 6.92938 57.6462 7.07905 58.2678C1.15665 81.4605 14.9831 97.6982 41.5941 102.675C45.9782 103.495 50.4304 103.901 54.8921 103.981L56.0686 104.001C60.8618 104.086 65.6589 103.79 70.3896 103.017V103.015Z" fill="#2B2B2B"/>
<path d="M57.6176 105.148C57.0966 105.148 56.5737 105.144 56.0489 105.135L54.8724 105.114C50.1815 105.031 45.644 104.587 41.385 103.79C26.3441 100.976 15.2761 94.6147 9.37453 85.3924C6.96275 81.6211 5.44332 77.402 4.85979 72.8504C4.27627 68.2969 4.63055 63.3882 5.90938 58.2584C5.47742 56.4389 3.11111 46.2436 1.50263 34.8995C-0.837152 18.401 -0.443083 7.65207 2.67536 2.95496C3.73063 1.36596 5.10608 0.421246 6.76004 0.147279C11.8867 -0.702962 18.4608 2.13117 26.3005 8.57033C32.4995 13.6623 37.9483 19.7349 40.5666 22.6541C40.9531 23.0849 41.2922 23.4647 41.5574 23.7518C51.6706 21.2162 62.2536 21.4373 72.2512 24.3924C72.5278 24.1165 72.8821 23.7519 73.2875 23.3362C76.0252 20.5304 81.724 14.6883 88.1314 9.86081C96.2325 3.75608 102.92 1.1978 108.007 2.26154C109.648 2.60353 110.982 3.60492 111.969 5.23739C114.888 10.0611 114.831 20.8157 111.802 37.2045C109.72 48.4693 106.927 58.5569 106.42 60.3594C107.471 65.4817 107.626 70.3507 106.88 74.8343C106.134 79.3179 104.487 83.4406 101.981 87.0891C95.9503 95.8711 85.0906 101.766 70.5726 104.137C66.4501 104.81 62.0983 105.15 57.6176 105.15V105.148ZM8.63186 2.26343C8.11465 2.26343 7.61448 2.30311 7.13137 2.38247C6.1102 2.55252 5.27281 3.14768 4.56992 4.20576C2.64316 7.10792 0.938051 14.7336 3.75147 34.582C5.47363 46.731 8.07297 57.5461 8.18285 57.9995C8.22643 58.179 8.22453 58.3661 8.17906 58.5456C5.66308 68.3933 6.71078 77.0166 11.2899 84.1718C16.8448 92.8519 27.3956 98.8659 41.8037 101.56C45.9376 102.333 50.3482 102.766 54.9122 102.847L56.0887 102.868C60.9861 102.953 65.7377 102.628 70.2051 101.897C84.0941 99.6273 94.4346 94.063 100.105 85.8043C104.857 78.8833 106.213 70.3866 104.137 60.5484C104.099 60.367 104.104 60.1799 104.156 60.0042C104.284 59.5545 107.335 48.8585 109.565 36.7927C113.208 17.0784 111.823 9.38845 110.021 6.40883C109.364 5.32241 108.551 4.69134 107.539 4.47973C103.123 3.55769 97.0548 5.97615 89.5012 11.669C83.2321 16.3944 77.6147 22.1515 74.9168 24.9176C74.1458 25.7074 73.6361 26.2308 73.3311 26.5085C73.0337 26.7787 72.615 26.8732 72.2304 26.7541C62.2328 23.6725 51.6005 23.4514 41.4835 26.1117C41.0933 26.2138 40.6783 26.1042 40.3923 25.8208C40.0986 25.5298 39.6117 24.9875 38.8747 24.1656C36.2943 21.288 30.9233 15.3023 24.8588 10.3199C18.3377 4.9672 12.8908 2.26343 8.63186 2.26343Z" fill="#0F0F0F"/>
<path d="M97.0577 72.7465C101.821 55.326 76.7309 45.843 67.9402 61.7047C67.8871 61.801 67.8341 61.8974 67.7829 61.9938C62.5691 71.7318 67.5006 84.2625 84.4929 83.6428C91.1182 83.4009 95.4549 78.6037 97.0577 72.7465Z" fill="#FFCE55"/>
<path d="M81.47 53.6161C90.8292 53.6161 100.122 61.5404 97.0585 72.7484C95.4576 78.6075 91.119 83.4029 84.4938 83.6447C84.0864 83.6598 83.6886 83.6674 83.2945 83.6674C67.2741 83.6674 62.6931 71.5014 67.7837 61.9957C67.8368 61.8975 67.8879 61.8011 67.941 61.7066C71.0765 56.0497 76.2827 53.6161 81.47 53.6161ZM81.47 51.3488C74.8694 51.3488 69.2122 54.7252 65.9517 60.6089C65.893 60.7147 65.8361 60.8205 65.7774 60.9282C62.7973 66.4944 62.7707 72.7352 65.7073 77.6212C67.5734 80.7256 72.3402 85.9347 83.2945 85.9347C83.7151 85.9347 84.1471 85.9272 84.5771 85.9101C88.2412 85.776 91.5718 84.4118 94.2091 81.9613C96.564 79.7733 98.3089 76.7937 99.2505 73.3436C100.711 68.0003 99.7658 62.7742 96.5886 58.625C93.15 54.1357 87.3564 51.3469 81.4682 51.3469L81.47 51.3488Z" fill="#0F0F0F"/>
<path d="M19.8702 71.1368C15.8424 53.533 41.3072 45.1043 49.4254 61.3194C49.4747 61.4176 49.522 61.5159 49.5713 61.616C54.3721 71.5619 48.9195 83.8772 31.967 82.5489C25.3569 82.0312 21.2249 77.0583 19.8702 71.1368Z" fill="#FFCE55"/>
<path d="M35.5528 52.6582C40.9713 52.6582 46.403 55.2788 49.4267 61.3193C49.476 61.4175 49.5233 61.5158 49.5726 61.6159C54.1328 71.063 49.4419 82.6471 34.4332 82.6471C33.6412 82.6471 32.819 82.615 31.9683 82.5489C25.3582 82.0312 21.2262 77.0582 19.8716 71.1367C17.3442 60.0912 26.4286 52.6582 35.5528 52.6582ZM35.5528 50.3909C32.7489 50.3909 29.9108 51.0163 27.3418 52.1972C24.716 53.4064 22.4216 55.1768 20.709 57.3194C17.5356 61.2891 16.45 66.3754 17.6549 71.6412C18.4525 75.1291 20.0705 78.1786 22.3307 80.461C24.8637 83.0193 28.1337 84.5214 31.7884 84.8086C32.6845 84.8785 33.5749 84.9144 34.4313 84.9144C42.0228 84.9144 47.9641 82.1218 51.1583 77.0525C54.1328 72.3327 54.3052 66.194 51.6187 60.6315C51.5657 60.522 51.5126 60.4143 51.4596 60.3066C49.8189 57.0303 47.4905 54.4928 44.535 52.7678C41.875 51.2128 38.7679 50.3909 35.551 50.3909H35.5528Z" fill="#0F0F0F"/>
<path d="M90.5389 72.4517C93.7692 60.6372 76.7541 54.2056 70.7919 64.964C70.7559 65.0282 70.7199 65.0943 70.6858 65.1605C67.1487 71.764 70.4945 80.2626 82.0191 79.8413C86.513 79.6769 89.4534 76.4233 90.5389 72.4517Z" fill="#0F0F0F"/>
<path d="M27.7323 71.1727C25.0004 59.2334 42.2693 53.5179 47.7749 64.5143C47.809 64.5805 47.8412 64.6485 47.8734 64.7146C51.1301 71.4599 47.4301 79.8111 35.9358 78.9099C31.4532 78.5584 28.6512 75.1858 27.7323 71.1708V71.1727Z" fill="#0F0F0F"/>
<path d="M60.9078 81.72C60.9227 81.0085 59.9087 80.4103 58.6429 80.3839C57.3771 80.3574 56.3389 80.9128 56.3239 81.6243C56.309 82.3358 57.323 82.934 58.5888 82.9605C59.8546 82.9869 60.8928 82.4316 60.9078 81.72Z" fill="#FFA9A9"/>
<path d="M58.5567 80.3799C58.5851 80.3799 58.6136 80.3799 58.6439 80.3799C59.9094 80.4063 60.9249 81.0053 60.9098 81.7157C60.8946 82.411 59.9038 82.957 58.678 82.957C58.6496 82.957 58.6211 82.957 58.5908 82.957C57.3253 82.9306 56.3098 82.3316 56.3249 81.6212C56.3401 80.9259 57.3309 80.3799 58.5567 80.3799ZM58.5567 78.1125C57.5678 78.1125 56.6432 78.3355 55.8816 78.7587C54.743 79.3898 54.0761 80.4158 54.0515 81.574C54.0268 82.7549 54.671 83.8205 55.8191 84.4988C56.5883 84.9523 57.5299 85.2036 58.5416 85.2262C58.587 85.2262 58.6306 85.2262 58.6761 85.2262C59.665 85.2262 60.5896 85.0033 61.3512 84.58C62.4898 83.949 63.1567 82.923 63.1813 81.7648C63.206 80.5839 62.5618 79.5183 61.4137 78.84C60.6445 78.3865 59.7029 78.1352 58.6912 78.1125C58.6458 78.1125 58.6022 78.1125 58.5567 78.1125Z" fill="#0F0F0F"/>
<path d="M21.6785 34.754C22.0877 34.3894 22.2601 33.8263 22.1048 33.3011C21.1802 30.1816 19.2364 21.5602 14.4432 13.7096C12.4501 10.4466 10.0269 8.00169 8.50371 7.1609C6.35149 5.97434 5.4781 7.77307 4.89836 10.1575C3.15158 17.3392 6.558 39.8857 9.44531 51.2978C9.63856 52.0593 10.6787 52.1613 11.014 51.4509C13.7441 45.6787 17.5124 38.4743 21.6785 34.7521V34.754Z" fill="white"/>
<path d="M10.2639 53.0645C10.1976 53.0645 10.1313 53.0607 10.065 53.0551C9.2238 52.9738 8.54745 52.3938 8.34094 51.5756C6.81582 45.5427 5.26796 37.0006 4.30552 29.2823C3.49655 22.8035 2.75009 14.1783 3.7921 9.89118C4.18996 8.25305 4.78864 6.49588 6.21714 5.87048C7.064 5.50016 8.01886 5.60029 9.0514 6.1709C10.9592 7.22331 13.515 10.0159 15.4114 13.1221C19.623 20.0185 21.6559 27.4231 22.7491 31.4023C22.9196 32.0239 23.0674 32.5586 23.1924 32.9818C23.469 33.9133 23.1716 34.9412 22.4346 35.6006C18.295 39.2982 14.521 46.6953 12.041 51.9384C11.7095 52.6394 11.0255 53.0683 10.2639 53.0683V53.0645ZM7.27051 7.92051C7.21936 7.92051 7.17199 7.92806 7.13221 7.94507C6.91244 8.04143 6.47101 8.493 6.00116 10.424C4.40973 16.9671 7.44292 38.3232 10.3435 50.2096C12.9068 44.8531 16.6732 37.6978 20.917 33.9076C21.0042 33.8302 21.0402 33.7187 21.0118 33.6223C20.8791 33.1783 20.7295 32.6323 20.5571 31.9993C19.4942 28.1279 17.5144 20.9235 13.4714 14.2992C11.5086 11.0853 9.23517 8.86144 7.95255 8.15291C7.81046 8.07544 7.50165 7.92051 7.27051 7.92051Z" fill="#0F0F0F"/>
<path d="M91.654 36.2145C91.2599 35.8328 91.1122 35.2641 91.2884 34.7464C92.3436 31.6686 94.6455 23.1359 99.7646 15.4932C101.892 12.3171 104.416 9.97419 105.973 9.19764C108.173 8.10178 108.97 9.93641 109.45 12.3416C110.893 19.5895 106.545 41.9735 103.182 53.2552C102.959 54.0072 101.913 54.0677 101.608 53.344C99.1224 47.4622 95.6591 40.1086 91.654 36.2164V36.2145Z" fill="white"/>
<path d="M102.372 54.986C101.577 54.986 100.872 54.5231 100.559 53.7824C98.3009 48.441 94.8396 40.8928 90.8591 37.0251C90.1505 36.3374 89.8967 35.2982 90.2112 34.3781C90.3532 33.9624 90.5238 33.4334 90.7189 32.8193C91.9769 28.8893 94.3205 21.5753 98.8162 14.8603C100.842 11.8372 103.511 9.15426 105.462 8.1812C106.52 7.65405 107.476 7.59359 108.308 7.99982C109.708 8.68379 110.235 10.4655 110.563 12.1188C111.425 16.4455 110.318 25.0311 109.236 31.4702C107.95 39.1413 106.046 47.6116 104.269 53.5746C104.028 54.3833 103.327 54.935 102.484 54.9803C102.446 54.9822 102.408 54.9841 102.37 54.9841L102.372 54.986ZM107.149 10.0064C106.921 10.0064 106.62 10.1424 106.48 10.2123C105.169 10.8661 102.804 12.9936 100.709 16.1225C96.3893 22.5711 94.1102 29.6885 92.8863 33.5108C92.6854 34.1362 92.513 34.6747 92.3634 35.113C92.3293 35.2094 92.3634 35.3209 92.4467 35.4021C96.5276 39.3661 99.9909 46.6725 102.327 52.1311C105.724 40.3751 109.649 19.1644 108.335 12.5609C107.946 10.611 107.526 10.1424 107.31 10.0366C107.264 10.0139 107.209 10.0045 107.15 10.0045L107.149 10.0064Z" fill="#0F0F0F"/>
<path d="M108.941 82.5735C108.941 82.5735 108.925 82.5735 108.916 82.5735L103.761 82.4658C103.134 82.4526 102.635 81.9349 102.649 81.3095C102.662 80.6841 103.177 80.1834 103.808 80.2004L108.963 80.3081C109.59 80.3213 110.089 80.839 110.075 81.4644C110.062 82.0822 109.556 82.5735 108.939 82.5735H108.941Z" fill="#0F0F0F"/>
<path d="M107.696 87.3556C107.555 87.3556 107.413 87.3291 107.275 87.2743L102.486 85.3698C101.902 85.1374 101.618 84.478 101.851 83.8961C102.084 83.3141 102.743 83.0307 103.329 83.2631L108.118 85.1676C108.702 85.4 108.986 86.0594 108.753 86.6414C108.575 87.0854 108.148 87.3556 107.696 87.3556Z" fill="#0F0F0F"/>
<path d="M7.38194 80.4553C7.38194 80.4553 7.36678 80.4553 7.35731 80.4553L2.20221 80.3476C1.57511 80.3344 1.07684 79.8167 1.0901 79.1913C1.10336 78.5659 1.61679 78.0709 2.24957 78.0822L7.40467 78.1899C8.03177 78.2031 8.53004 78.7208 8.51678 79.3462C8.50352 79.9641 7.99767 80.4553 7.38004 80.4553H7.38194Z" fill="#0F0F0F"/>
<path d="M3.26973 85.1771C2.79988 85.1771 2.36223 84.8842 2.19741 84.4175C1.989 83.8261 2.30161 83.1799 2.8946 82.9721L7.75983 81.2697C8.35283 81.0619 9.00077 81.3737 9.20917 81.965C9.41757 82.5564 9.10497 83.2026 8.51197 83.4105L3.64674 85.1128C3.5217 85.1563 3.39477 85.1771 3.26973 85.1771Z" fill="#0F0F0F"/>
<path d="M63.12 136.949H51.7791C51.7318 136.949 51.6863 136.945 51.6408 136.942C45.9155 136.237 41.5466 133.939 38.6574 130.111C33.5876 123.396 34.9403 114.463 35.0009 114.085C35.0994 113.467 35.683 113.044 36.3025 113.144C36.922 113.243 37.3445 113.823 37.2479 114.44C37.2346 114.524 35.9937 122.828 40.4838 128.76C42.977 132.056 46.8021 134.047 51.8511 134.682H59.3309C58.1657 133.826 56.8016 132.726 55.4413 131.409C50.739 126.856 48.3765 121.881 48.6114 117.021C48.6418 116.396 49.1779 115.916 49.8012 115.944C50.4283 115.975 50.9114 116.506 50.8811 117.131C50.3866 127.357 63.5368 134.752 63.6694 134.825C64.1222 135.077 64.3496 135.6 64.2188 136.101C64.0881 136.602 63.6372 136.951 63.1181 136.951L63.12 136.949Z" fill="#0F0F0F"/>
<path d="M50.825 134.731L51.0183 134.312H63.7573L63.924 133.879L71.6804 113.732C71.9437 113.048 72.603 112.596 73.3381 112.596H75.4411L75.5964 133.881L67.7624 136.715C67.8439 136.736 65.3165 136.753 65.4037 136.762L65.3961 136.779H52.5131C51.2437 136.779 50.3703 135.719 50.825 134.733V134.731Z" fill="#BCBCBC"/>
<path d="M64.8221 136.756L65.9569 133.879L73.9273 113.651C74.1793 113.014 74.7951 112.594 75.4809 112.594H109.875C111.119 112.594 111.978 113.84 111.532 115L103.587 135.642C103.323 136.326 102.664 136.777 101.929 136.777H89.0175H65.0816H64.8164L64.824 136.756H64.8221Z" fill="#CCCCCC"/>
<path d="M109.878 112.595C111.123 112.595 111.981 113.84 111.536 115L103.59 135.642C103.327 136.326 102.668 136.777 101.933 136.777H52.5148C51.2454 136.777 50.372 135.717 50.8267 134.731C50.9442 134.476 51.2018 134.312 51.4841 134.312H63.7609L63.9276 133.879L71.6839 113.732C71.9473 113.048 72.6066 112.596 73.3417 112.596H75.4446V112.6C75.4598 112.6 75.4731 112.596 75.4882 112.596H109.882M109.882 110.329H75.4882C75.4882 110.329 75.4731 110.329 75.4674 110.329C75.4598 110.329 75.4541 110.329 75.4465 110.329H73.3436C71.6802 110.329 70.1607 111.37 69.5639 112.92L62.2017 132.046H51.4879C50.3209 132.046 49.2524 132.728 48.7654 133.786C48.2539 134.895 48.3449 136.173 49.0098 137.204C49.7506 138.357 51.0635 139.046 52.5205 139.046H101.938C103.602 139.046 105.121 138.005 105.718 136.456L113.664 115.814C114.141 114.573 113.976 113.176 113.22 112.081C112.464 110.985 111.218 110.329 109.884 110.329H109.882Z" fill="#0F0F0F"/>
</g>
<defs>
<clipPath id="clip0_5314_20452">
<rect width="208" height="168" fill="white"/>
</clipPath>
</defs>
</svg>
