<svg width="49" height="48" viewBox="0 0 49 48" fill="none" xmlns="http://www.w3.org/2000/svg">
<g clip-path="url(#clip0_5316_25062)">
<path d="M22.1653 23.6945C22.3289 23.629 22.4489 23.5254 22.5307 23.4C22.6125 23.269 22.6507 23.1054 22.6507 22.9036C22.6507 22.7018 22.6125 22.5327 22.5307 22.3909C22.4489 22.249 22.3289 22.1454 22.1653 22.08C22.0016 22.009 21.7998 21.9763 21.5544 21.9763H20.6816V23.7981H21.5544C21.7944 23.7981 21.9962 23.7654 22.1598 23.7L22.1653 23.6945Z" fill="#808BFF"/>
<path d="M38.3699 25.991C36.9299 25.0037 36.9299 22.8764 38.3699 21.8892C40.4153 20.4873 39.3735 17.2855 36.8972 17.351C35.1517 17.4001 33.9026 15.6764 34.4862 14.0346C35.3153 11.7001 32.5935 9.72007 30.6299 11.231C29.2444 12.2946 27.2208 11.6401 26.7299 9.96552C26.0317 7.58734 22.6608 7.58734 21.9626 9.96552C21.4717 11.6401 19.4481 12.3001 18.0626 11.231C16.099 9.72007 13.3717 11.7001 14.2062 14.0346C14.7899 15.6819 13.5408 17.4001 11.7953 17.351C9.31897 17.2801 8.27715 20.4873 10.3226 21.8892C11.7626 22.8764 11.7626 25.0037 10.3226 25.991C8.27715 27.3928 9.31897 30.5946 11.7953 30.5292C13.5408 30.4801 14.7899 32.2037 14.2062 33.8455C13.3772 36.1801 16.099 38.1601 18.0626 36.6492C19.4481 35.5855 21.4717 36.2401 21.9626 37.9146C22.6608 40.2928 26.0317 40.2928 26.7299 37.9146C27.2262 36.2401 29.2444 35.5801 30.6299 36.6492C32.5935 38.1601 35.3208 36.1801 34.4862 33.8455C33.9026 32.1982 35.1517 30.4801 36.8972 30.5292C39.3735 30.6001 40.4153 27.3928 38.3699 25.991ZM18.4172 21.9764H15.7172V23.4273H18.1553V24.4473H15.7172V26.9292H14.479V20.9564H18.4172V21.9819V21.9764ZM22.759 26.9292L21.6299 24.8073H20.6862V26.9292H19.4481V20.9564H21.7826C22.2299 20.9564 22.6172 21.0328 22.939 21.191C23.2608 21.3492 23.5062 21.5782 23.6753 21.8673C23.8444 22.1619 23.9262 22.5055 23.9262 22.8982C23.9262 23.291 23.839 23.6292 23.6699 23.9182C23.5008 24.2019 23.2553 24.4255 22.9281 24.5782C22.9062 24.5892 22.8844 24.5892 22.8626 24.6001L24.139 26.9292H22.759ZM29.0153 26.9292H24.9953V20.9564H29.0044V21.9819H26.2335V23.4328H28.7972V24.4528H26.2335V25.9092H29.0153V26.9346V26.9292ZM34.1972 26.9292H30.1772V20.9564H34.1862V21.9819H31.4153V23.4328H33.979V24.4528H31.4153V25.9092H34.1972V26.9346V26.9292Z" fill="#808BFF"/>
</g>
<defs>
<clipPath id="clip0_5316_25062">
<rect width="30.2291" height="31.5164" fill="white" transform="translate(9.22656 8.18188)"/>
</clipPath>
</defs>
</svg>
