<svg width="49" height="48" viewBox="0 0 49 48" fill="none" xmlns="http://www.w3.org/2000/svg">
<g clip-path="url(#clip0_5316_25059)">
<rect x="15.2285" y="11.4546" width="19.0909" height="9.27273" fill="#D9DAFF"/>
<path d="M35.7801 36.6272H15.3583C14.3819 36.6272 13.591 35.8309 13.591 34.86C13.591 33.8891 14.3819 33.0927 15.3583 33.0927H35.7529C36.1947 33.0927 36.5547 32.7382 36.571 32.3018H36.5819V12.1473C36.5819 10.56 35.2947 9.27271 33.7074 9.27271H15.8383C13.7056 9.27271 11.971 11.0018 11.971 13.14V34.4727H11.9765C11.9601 34.5982 11.9492 34.7291 11.9492 34.8654C11.9492 36.7418 13.4765 38.2691 15.3529 38.2691H35.7747C36.2274 38.2691 36.5929 37.9036 36.5929 37.4509C36.5929 36.9982 36.2274 36.6327 35.7747 36.6327L35.7801 36.6272ZM16.6074 14.5309C16.6074 13.7618 17.2292 13.14 17.9983 13.14H31.3674C32.1365 13.14 32.7583 13.7618 32.7583 14.5309V17.9727C32.7583 18.7418 32.1365 19.3636 31.3674 19.3636H18.0038C17.2347 19.3636 16.6129 18.7418 16.6129 17.9727V14.5309H16.6074Z" fill="#808BFF"/>
</g>
<defs>
<clipPath id="clip0_5316_25059">
<rect width="24.6436" height="28.9909" fill="white" transform="translate(11.9551 9.27271)"/>
</clipPath>
</defs>
</svg>
