<svg width="49" height="48" viewBox="0 0 49 48" fill="none" xmlns="http://www.w3.org/2000/svg">
<g clip-path="url(#clip0_5316_25065)">
<path d="M23.1358 24L24.2267 12.8182L25.5904 12L29.954 18.5455L39.2267 20.1818L32.4086 27.5455L34.5904 36.8182L33.7722 37.6364L24.2267 33.2727L17.954 36.5455L16.0449 36.2727L23.1358 24Z" fill="#D9DAFF"/>
<path d="M40.127 21.2784C41.218 20.2148 40.618 18.3657 39.107 18.1475L31.0452 16.9748C30.4452 16.8875 29.9325 16.5111 29.6598 15.9711L26.0543 8.6675C25.378 7.30387 23.4361 7.30387 22.7598 8.6675L19.1543 15.9711C18.887 16.5111 18.3689 16.8875 17.7689 16.9748L9.70704 18.1475C8.20159 18.3657 7.59614 20.2202 8.68704 21.2784L14.5234 26.9675C14.9543 27.3875 15.1561 27.9984 15.0525 28.593L13.678 36.622C13.4216 38.122 14.998 39.2675 16.3452 38.5584L23.5561 34.7675C24.0907 34.4839 24.7289 34.4839 25.2634 34.7675L32.4743 38.5584C33.8216 39.2675 35.398 38.122 35.1416 36.622L33.767 28.593C33.6634 27.9984 33.8598 27.3875 34.2961 26.9675L40.1325 21.2784H40.127ZM23.878 28.6039L23.7525 31.4566C23.7307 31.9148 23.458 32.3239 23.038 32.5148L18.3307 35.3511C17.9652 35.5148 17.6052 35.1166 17.807 34.773L23.2289 26.9457C23.4089 26.6293 23.8943 26.7602 23.8943 27.1257L23.8834 28.6093L23.878 28.6039ZM25.1543 19.833L25.4052 15.0766C25.4434 14.313 26.4743 14.0948 26.818 14.782L28.1216 17.6457C28.2361 17.902 28.2034 18.202 28.0234 18.4257L26.4798 20.3457C26.027 20.913 25.1161 20.5639 25.1489 19.8384L25.1543 19.833ZM31.427 27.933L33.347 36.2511C33.4234 36.6275 32.927 36.8293 32.7143 36.513L25.9398 26.4002C25.5743 25.8275 25.8307 25.0639 26.4689 24.8239L37.2634 20.5911C37.6452 20.4602 37.9343 20.9511 37.6289 21.2239L32.0761 25.9693C31.5252 26.4602 31.2743 27.2075 31.4216 27.933H31.427Z" fill="#808BFF"/>
</g>
<defs>
<clipPath id="clip0_5316_25065">
<rect width="32.5473" height="31.1345" fill="white" transform="translate(8.13672 7.63647)"/>
</clipPath>
</defs>
</svg>
