<svg width="37" height="30" viewBox="0 0 37 30" fill="none" xmlns="http://www.w3.org/2000/svg">
<g id="_&#235;&#160;&#136;&#236;&#157;&#180;&#236;&#150;&#180;_1" clip-path="url(#clip0_6231_10040)">
<path id="Vector" d="M13.2275 24.1931H30.1771C30.891 24.1931 31.5793 24.5303 32.0159 25.0976L34.2758 28.041C34.4248 28.2351 34.6251 28.1994 34.7021 28.1687C34.7792 28.1432 34.959 28.0563 34.959 27.811V10.4469C34.959 10.0228 34.6148 9.68042 34.1885 9.68042H28.59V13.3035H30.1463C30.8551 13.3035 31.4304 13.8758 31.4304 14.581C31.4304 15.2862 30.8551 15.8585 30.1463 15.8585H28.59V17.9843C28.59 18.2194 28.5386 18.4391 28.4513 18.6384H30.1463C30.8551 18.6384 31.4304 19.2107 31.4304 19.9159C31.4304 20.6211 30.8551 21.1934 30.1463 21.1934H17.1618C16.453 21.1934 15.8778 20.6211 15.8778 19.9159C15.8778 19.8239 15.888 19.732 15.9086 19.64H12.457V23.4214C12.457 23.8456 12.8012 24.188 13.2275 24.188V24.1931Z" fill="#D9DAFF"/>
<path id="Vector_2" d="M34.1884 8.14722H28.5899V9.68024H34.1884C34.6147 9.68024 34.9588 10.0226 34.9588 10.4468V27.8057C34.9588 28.051 34.779 28.1379 34.702 28.1634C34.625 28.189 34.4246 28.2299 34.2757 28.0357L32.0157 25.0923C31.5792 24.525 30.896 24.1878 30.177 24.1878H13.2273C12.801 24.1878 12.4569 23.8454 12.4569 23.4213V19.6398H10.916V23.4213C10.916 24.6886 11.9535 25.7208 13.2273 25.7208H30.177C30.4132 25.7208 30.6444 25.8332 30.7882 26.0223L33.0481 28.9657C33.4231 29.4563 33.9778 29.722 34.5633 29.722C34.7739 29.722 34.9845 29.6862 35.1951 29.6147C35.9912 29.349 36.4997 28.6387 36.4997 27.8006V10.4468C36.4997 9.17945 35.4622 8.14722 34.1884 8.14722Z" fill="#808BFF"/>
<path id="Vector_3" d="M30.1461 13.3035H28.5898V15.8585H30.1461C30.8549 15.8585 31.4302 15.2862 31.4302 14.581C31.4302 13.8758 30.8549 13.3035 30.1461 13.3035Z" fill="#808BFF"/>
<path id="Vector_4" d="M30.1474 18.6436H28.4525C28.1956 19.2312 27.6101 19.6451 26.9219 19.6451H15.9097C15.8892 19.732 15.8789 19.824 15.8789 19.9211C15.8789 20.6263 16.4542 21.1986 17.163 21.1986H30.1474C30.8562 21.1986 31.4315 20.6263 31.4315 19.9211C31.4315 19.2159 30.8562 18.6436 30.1474 18.6436Z" fill="#808BFF"/>
<path id="Vector_5" d="M24.851 0.272705H2.16928C1.24476 0.272705 0.5 1.01367 0.5 1.93348V20.7233C0.5 21.9088 2.0152 22.4198 2.73941 21.4745L5.18426 18.2909C5.49757 17.8821 5.99066 17.6368 6.50942 17.6368H24.851C25.7704 17.6368 26.5203 16.8958 26.5203 15.976V1.93348C26.5203 1.01878 25.7755 0.272705 24.851 0.272705ZM8.36361 10.8046C7.42881 10.8046 6.67378 10.0534 6.67378 9.12338C6.67378 8.19334 7.42881 7.44216 8.36361 7.44216C9.2984 7.44216 10.0534 8.19334 10.0534 9.12338C10.0534 10.0534 9.2984 10.8046 8.36361 10.8046ZM13.9621 10.8046C13.0273 10.8046 12.2723 10.0534 12.2723 9.12338C12.2723 8.19334 13.0273 7.44216 13.9621 7.44216C14.8969 7.44216 15.6519 8.19334 15.6519 9.12338C15.6519 10.0534 14.8969 10.8046 13.9621 10.8046ZM19.689 10.8046C18.7542 10.8046 17.9992 10.0534 17.9992 9.12338C17.9992 8.19334 18.7542 7.44216 19.689 7.44216C20.6238 7.44216 21.3789 8.19334 21.3789 9.12338C21.3789 10.0534 20.6238 10.8046 19.689 10.8046Z" fill="#808BFF"/>
</g>
<defs>
<clipPath id="clip0_6231_10040">
<rect width="36" height="29.4545" fill="white" transform="translate(0.5 0.272705)"/>
</clipPath>
</defs>
</svg>
