<svg width="49" height="48" viewBox="0 0 49 48" fill="none" xmlns="http://www.w3.org/2000/svg">
<path d="M38.0176 12.1996C35.5379 12.4701 30.9648 13.4039 27.9567 16.6188C25.8074 18.9101 24.8623 21.9311 24.4558 24.3856C24.0747 21.9208 23.1652 18.859 21.0209 16.527C18.0433 13.2866 13.4753 12.3068 11.0007 12.0108C10.0353 11.8986 9.19688 12.6742 9.22737 13.6489C9.31375 16.1596 9.90317 20.8237 12.8808 24.0692C15.9346 27.3913 20.6703 28.3251 23.1093 28.5854V39.6333C23.1093 40.3376 23.6784 40.9091 24.3796 40.9091C25.0808 40.9091 25.6499 40.3376 25.6499 39.6333V28.6619C28.0584 28.4374 32.8906 27.575 36.0156 24.2376C39.0287 21.0227 39.6588 16.3637 39.7706 13.853C39.8112 12.8783 38.983 12.0976 38.0176 12.1996ZM23.0026 26.0798L15.772 20.2828C15.4569 20.0327 15.7466 19.5633 16.1277 19.6908C19.9843 20.9768 22.4589 23.6763 23.5005 25.6001C23.6936 25.9573 23.3227 26.3298 23.0076 26.0747L23.0026 26.0798ZM33.0837 20.2828L25.8531 26.0798C25.5381 26.3349 25.1672 25.9624 25.3602 25.6052C26.3663 23.7528 29.0187 20.9053 32.7331 19.6959C33.1142 19.5735 33.3987 20.0378 33.0888 20.2879L33.0837 20.2828Z" fill="#808BFF"/>
</svg>
